{"title":"The.Lovely.Bones.2009.SWESUB.DVDRip.XviD.AC3.(5.1).-Zen_Bud","uid":5571292,"size":1475179942,"categoryP":"video","categoryS":"movies","magnet":"?xt=urn:btih:f40d98161627c5d3607fc7babf2b933ee18f670a&amp;dn=The.Lovely.Bones.2009.SWESUB.DVDRip.XviD.AC3.%285.1%29.-Zen_Bud&amp;tr=udp%3A%2F%2Ftracker.openbittorrent.com%3A80&amp;tr=udp%3A%2F%2Fopen.demonii.com%3A1337&amp;tr=udp%3A%2F%2Ftracker.coppersurfer.tk%3A6969&amp;tr=udp%3A%2F%2Fexodus.desync.com%3A6969","seeders":1,"leechers":0,"uploader":"Zen_Bud","files":-1,"time":1274259896,"description":"General\nComplete name                    : The.Lovely.Bones.avi\nFormat                           : AVI\nFile size                        : 1.37 GiB\nDuration                         : 2h 15mn\nOverall bit rate                 : 1 452 Kbps\n\nVideo\nID                               : 0\nFormat                           : MPEG-4 Visual\nCodec ID/Hint                    : XviD\nDuration                         : 2h 15mn\nBit rate                         : 993 Kbps\nWidth                            : 720 pixels\nHeight                           : 364 pixels\nDisplay aspect ratio             : 2.35:1\nResolution                       : 8 bits\nColorimetry                      : 4:2:0\nScan type                        : Progressive\nBits/(Pixel*Frame)               : 0.158\nStream size                      : 962 MiB (68%)\nWriting library                  : XviD 1.1.2 (UTC 2006-11-01)\n\nAudio\nID                               : 1\nFormat                           : AC-3\nDuration                         : 2h 15mn\nBit rate                         : 448 Kbps\nChannel(s)                       : 6 channels\nChannel positions                : Front: L C R, Side: L R, LFE\nSampling rate                    : 48.0 KHz\nStream size                      : 434 MiB (31%)\n\n\n","torrent":{"xt":"urn:btih:f40d98161627c5d3607fc7babf2b933ee18f670a","amp;dn":"The.Lovely.Bones.2009.SWESUB.DVDRip.XviD.AC3.%285.1%29.-Zen_Bud","amp;tr":["udp%3A%2F%2Ftracker.openbittorrent.com%3A80","udp%3A%2F%2Fopen.demonii.com%3A1337","udp%3A%2F%2Ftracker.coppersurfer.tk%3A6969","udp%3A%2F%2Fexodus.desync.com%3A6969"],"infoHash":"f40d98161627c5d3607fc7babf2b933ee18f670a","infoHashBuffer":{"type":"Buffer","data":[244,13,152,22,22,39,197,211,96,127,199,186,191,43,147,62,225,143,103,10]},"announce":[],"urlList":[]}}